<svg id="Layer_1" data-name="Layer 1" xmlns="http://www.w3.org/2000/svg" xmlns:xlink="http://www.w3.org/1999/xlink" viewBox="0 0 560.85 132.74"><defs><style>.cls-1{fill:none;}.cls-2{fill:#fff;}.cls-3{fill:#1a1a1a;}.cls-4{clip-path:url(#clip-path);}.cls-5{fill:#3c3;}.cls-6{clip-path:url(#clip-path-2);}.cls-7{fill:#c22746;stroke:#1a1a1a;stroke-linecap:round;stroke-linejoin:round;stroke-width:2px;}</style><clipPath id="clip-path"><rect class="cls-1" x="19.22" y="16.84" width="525.21" height="104.06" rx="40.96"/></clipPath><clipPath id="clip-path-2"><rect class="cls-1" x="-1678.91" y="669.37" width="1378.67" height="369"/></clipPath></defs><title>logo</title><rect class="cls-2" x="14.92" y="13.34" width="532.21" height="111.06" rx="44.46"/><path class="cls-3" d="M502.67,16.84a41.08,41.08,0,0,1,41,41V79.94a41.08,41.08,0,0,1-41,41H59.38a41.09,41.09,0,0,1-41-41V57.8a41.08,41.08,0,0,1,41-41H502.67m0-7H59.38a48,48,0,0,0-48,48V79.94a48,48,0,0,0,48,48H502.67a48,48,0,0,0,48-48V57.8a48,48,0,0,0-48-48Z"/><g class="cls-4"><polygon class="cls-5" points="665.41 14.66 -88.28 17.41 -88.28 33.9 243.03 31.15 243.03 78.65 321.15 78.65 321.15 31.15 665.41 31.15 665.41 14.66"/></g><g class="cls-6"><image width="800" height="600" transform="translate(-4346.89 -1411.7) scale(8.38)" xlink:href="../../apu.png"/></g><path class="cls-7" d="M63.64,80v14h-12V47.31h12V63.53L80.16,46.28l13.49.16L74.23,68.14,92.34,94.05H78.59L67.13,76.59Z"/><path class="cls-7" d="M138.3,93.71l-7.37-29.35L124,93.71H112L98.26,46.44l12.12-.16,7.84,32.44L124.93,47h11.93l7.63,31.75L151.21,47h11.92L150.29,93.71Z"/><path class="cls-7" d="M182.15,47V93.71H170.89V47Z"/><path class="cls-7" d="M201.74,79.69v14h-12V47h12V63.19l18-17.25,16.42-.18-22.35,22L231.9,93.71H216.69L205.23,76.25Z"/><path class="cls-7" d="M309.1,90.71v15.42H261.36V32.06L309.1,32V47.64H278.8v13.5L309.1,61V76.72H278.8V90.55Z"/><path class="cls-7" d="M371,71.09l-6.3,9.16-4.57,0-7.24-9.21V93.71h-12V47h8.23l13.51,17.8L375.05,47h8V93.71H371Z"/><path class="cls-7" d="M388.94,93.71,405.74,47h12l16.73,46.19-11.79,1.23-3.22-9.89H404l-3.1,9.21Zm18.31-19H416L411.53,62Z"/><path class="cls-7" d="M440.38,93.71V47h18.84c5.35,0,9.77,1.33,13.23,4s5.21,6.64,5.21,12A15.56,15.56,0,0,1,476,70.17a14,14,0,0,1-4.44,5.12l9.88,18.42h-13.9L460.34,79h-8V93.71Zm24.9-30.79a5.9,5.9,0,0,0-1.68-4.57,6.77,6.77,0,0,0-4.78-1.55h-6.45V69.17H459a6.21,6.21,0,0,0,4.55-1.75A6.07,6.07,0,0,0,465.28,62.92Z"/><path class="cls-7" d="M482.79,47l39.32.16.13,9.67H508V93.71H496V56.8H482.79Z"/><rect class="cls-7" x="234.68" y="62.17" width="19.05" height="10.62"/><rect class="cls-7" x="316.73" y="62.17" width="19.05" height="10.62"/></svg>